HIERARCHY
ROOT hip
{
  OFFSET 0 0 0
  CHANNELS 6 Xposition Yposition Zposition Zrotation Yrotation Xrotation
  JOINT abdomen
  {
    OFFSET 0 20.6881 -0.73152
    CHANNELS 3 Zrotation Xrotation Yrotation
    JOINT chest
    {
      OFFSET 0 11.7043 -0.48768
      CHANNELS 3 Zrotation Xrotation Yrotation
      JOINT neck
      {
        OFFSET 0 22.1894 -2.19456
        CHANNELS 3 Zrotation Xrotation Yrotation
        JOINT head
        {
          OFFSET -0.24384 7.07133 1.2192
          CHANNELS 3 Zrotation Xrotation Yrotation
          JOINT leftEye
          {
            OFFSET 4.14528 8.04674 8.04672
            CHANNELS 3 Zrotation Xrotation Yrotation
            End Site
            {
              OFFSET 1 0 0
            }
          }
          JOINT rightEye
          {
            OFFSET -3.6576 8.04674 8.04672
            CHANNELS 3 Zrotation Xrotation Yrotation
            End Site
            {
              OFFSET 1 0 0
            }
          }
        }
      }
      JOINT rCollar
      {
        OFFSET -2.68224 19.2634 -4.8768
        CHANNELS 3 Zrotation Xrotation Yrotation
        JOINT rShldr
        {
          OFFSET -8.77824 -1.95073 1.46304
          CHANNELS 3 Zrotation Xrotation Yrotation
          JOINT rForeArm
          {
            OFFSET -28.1742 -1.7115 0.48768
            CHANNELS 3 Zrotation Xrotation Yrotation
            JOINT rHand
            {
              OFFSET -22.5879 0.773209 7.07136
              CHANNELS 3 Zrotation Xrotation Yrotation
              JOINT rThumb1
              {
                OFFSET -1.2192 -0.487915 3.41376
                CHANNELS 3 Zrotation Xrotation Yrotation
                JOINT rThumb2
                {
                  OFFSET -3.37035 -0.52449 3.41376
                  CHANNELS 3 Zrotation Xrotation Yrotation
                  End Site
                  {
                    OFFSET -1.78271 -1.18214 1.43049
                  }
                }
              }
              JOINT rIndex1
              {
                OFFSET -7.75947 0.938293 5.60832
                CHANNELS 3 Zrotation Xrotation Yrotation
                JOINT rIndex2
                {
                  OFFSET -2.54057 -0.884171 1.56538
                  CHANNELS 3 Zrotation Xrotation Yrotation
                  End Site
                  {
                    OFFSET -1.62519 -0.234802 1.16502
                  }
                }
              }
              JOINT rMid1
              {
                OFFSET -8.24714 1.18213 3.41376
                CHANNELS 3 Zrotation Xrotation Yrotation
                JOINT rMid2
                {
                  OFFSET -3.10165 -0.590103 1.0647
                  CHANNELS 3 Zrotation Xrotation Yrotation
                  End Site
                  {
                    OFFSET -2.48547 -0.328903 0.83742
                  }
                }
              }
              JOINT rRing1
              {
                OFFSET -8.82822 0.546677 1.51678
                CHANNELS 3 Zrotation Xrotation Yrotation
                JOINT rRing2
                {
                  OFFSET -2.60934 -0.819778 -0.0198488
                  CHANNELS 3 Zrotation Xrotation Yrotation
                  End Site
                  {
                    OFFSET -2.33842 -0.294052 0.168128
                  }
                }
              }
              JOINT rPinky1
              {
                OFFSET -8.27202 -0.0477905 -0.4584
                CHANNELS 3 Zrotation Xrotation Yrotation
                JOINT rPinky2
                {
                  OFFSET -1.82734 -0.647385 -0.700984
                  CHANNELS 3 Zrotation Xrotation Yrotation
                  End Site
                  {
                    OFFSET -1.69225 -0.51767 -0.607171
                  }
                }
              }
            }
          }
        }
      }
      JOINT lCollar
      {
        OFFSET 2.68224 19.2634 -4.8768
        CHANNELS 3 Zrotation Xrotation Yrotation
        JOINT lShldr
        {
          OFFSET 8.77824 -1.95073 1.46304
          CHANNELS 3 Zrotation Xrotation Yrotation
          JOINT lForeArm
          {
            OFFSET 28.1742 -1.7115 0.48768
            CHANNELS 3 Zrotation Xrotation Yrotation
            JOINT lHand
            {
              OFFSET 22.5879 0.773209 7.07136
              CHANNELS 3 Zrotation Xrotation Yrotation
              JOINT lThumb1
              {
                OFFSET 1.2192 -0.487915 3.41376
                CHANNELS 3 Zrotation Xrotation Yrotation
                JOINT lThumb2
                {
                  OFFSET 3.37035 -0.52449 3.41376
                  CHANNELS 3 Zrotation Xrotation Yrotation
                  End Site
                  {
                    OFFSET 1.78271 -1.18214 1.43049
                  }
                }
              }
              JOINT lIndex1
              {
                OFFSET 7.75947 0.938293 5.60832
                CHANNELS 3 Zrotation Xrotation Yrotation
                JOINT lIndex2
                {
                  OFFSET 2.54057 -0.884171 1.56538
                  CHANNELS 3 Zrotation Xrotation Yrotation
                  End Site
                  {
                    OFFSET 1.62519 -0.234802 1.16502
                  }
                }
              }
              JOINT lMid1
              {
                OFFSET 8.24714 1.18213 3.41376
                CHANNELS 3 Zrotation Xrotation Yrotation
                JOINT lMid2
                {
                  OFFSET 3.10165 -0.590103 1.0647
                  CHANNELS 3 Zrotation Xrotation Yrotation
                  End Site
                  {
                    OFFSET 2.48547 -0.328903 0.83742
                  }
                }
              }
              JOINT lRing1
              {
                OFFSET 8.82822 0.546677 1.51678
                CHANNELS 3 Zrotation Xrotation Yrotation
                JOINT lRing2
                {
                  OFFSET 2.60934 -0.819778 -0.0198488
                  CHANNELS 3 Zrotation Xrotation Yrotation
                  End Site
                  {
                    OFFSET 2.33842 -0.294052 0.168128
                  }
                }
              }
              JOINT lPinky1
              {
                OFFSET 8.27202 -0.0477905 -0.4584
                CHANNELS 3 Zrotation Xrotation Yrotation
                JOINT lPinky2
                {
                  OFFSET 1.82734 -0.647385 -0.700984
                  CHANNELS 3 Zrotation Xrotation Yrotation
                  End Site
                  {
                    OFFSET 1.69225 -0.51767 -0.607171
                  }
                }
              }
            }
          }
        }
      }
    }
  }
  JOINT rButtock
  {
    OFFSET -8.77824 4.35084 1.2192
    CHANNELS 3 Zrotation Xrotation Yrotation
    JOINT rThigh
    {
      OFFSET 0 -1.70687 -2.19456
      CHANNELS 3 Zrotation Xrotation Yrotation
      JOINT rShin
      {
        OFFSET 0 -36.8199 0.73152
        CHANNELS 3 Zrotation Xrotation Yrotation
        JOINT rFoot
        {
          OFFSET 0.73152 -45.1104 -5.12064
          CHANNELS 3 Zrotation Xrotation Yrotation
          End Site
          {
            OFFSET -1.1221 -3.69964 12.103
          }
        }
      }
    }
  }
  JOINT lButtock
  {
    OFFSET 8.77824 4.35084 1.2192
    CHANNELS 3 Zrotation Xrotation Yrotation
    JOINT lThigh
    {
      OFFSET 0 -1.70687 -2.19456
      CHANNELS 3 Zrotation Xrotation Yrotation
      JOINT lShin
      {
        OFFSET 0 -36.8199 0.73152
        CHANNELS 3 Zrotation Xrotation Yrotation
        JOINT lFoot
        {
          OFFSET -0.73152 -45.1104 -5.12064
          CHANNELS 3 Zrotation Xrotation Yrotation
          End Site
          {
            OFFSET 1.1221 -3.69964 12.103
          }
        }
      }
    }
  }
}
MOTION
Frames:	7
Frame Time:	0.00833333
-2.94442 84.2564 36.4618 0.0 0.0 0.0 -1.24151 -0.00398119 -0.0340789 -0.342494 -0.00249265 -0.0593272 2.14569e-15 -1.59028e-15 6.08778e-16 6.33005e-15 3.18055e-15 1.79993e-15 -0.0 0.0 0.0 -0.0 0.0 0.0 1.19123e-15 -3.37779e-17 3.47873e-16 2.66204e-14 -2.48481e-16 7.35503e-15 3.95681e-13 -1.43125e-13 1.20861e-13 4.56966e-12 1.20016e-14 1.20225e-12 1.0768e-11 -2.9227e-13 2.88476e-12 1.85895e-11 -5.05708e-13 4.96803e-12 1.07725e-11 -2.91816e-13 2.87522e-12 7.73091 5.47488 0.417314 1.07683e-11 -2.92015e-13 2.88476e-12 2.90554 0.965183 0.102902 1.07742e-11 -2.92114e-13 2.8792e-12 10.2786 0.731801 0.0259123 1.07628e-11 -2.91021e-13 2.8784e-12 2.22167 -0.733487 -0.20892 1.29364e-15 -3.02836e-17 1.98785e-16 2.03013e-14 -5.59082e-16 5.1684e-15 4.0239e-13 1.02175e-13 1.08139e-13 4.57103e-12 -2.36305e-13 1.22451e-12 1.07864e-11 -2.96163e-13 2.87522e-12 1.86273e-11 -5.1525e-13 4.97995e-12 1.07797e-11 -2.94996e-13 2.88476e-12 -7.73091 5.47488 -0.417314 1.07856e-11 -2.96289e-13 2.87522e-12 -2.90554 0.965183 -0.102902 1.07766e-11 -2.95891e-13 2.88158e-12 -10.2786 0.731801 -0.0259123 1.07851e-11 -2.94996e-13 2.88476e-12 -2.22167 -0.733487 0.20892 -2.03217e-16 0.0 -3.88251e-19 -0.453831 -1.92099 -0.00952726 -0.00915567 -2.07857 -0.0755527 -0.487462 3.99699 0.136654 2.03217e-16 0.0 3.88251e-19 -1.43727 -5.97115 0.129662 -0.00126425 5.25795 -0.0454139 0.507817 0.710744 -0.0722743
-4.05126 83.8116 35.3127 0.3291 -5.3569 2.3812 -1.82239 -0.396158 0.728466 0.378557 -0.896806 0.185933 -0.448241 0.582099 -0.491754 1.23111 -0.201697 -0.861374 -0.0 0.0 0.0 -0.0 0.0 0.0 9.35095e-15 6.52591e-15 6.8835e-14 22.6628 7.88722 -4.28485 -6.77002 -3.83991 9.61368 0.0167995 2.87584 0.402336 -1.34413e-10 2.72225e-10 3.01108e-11 -2.31743e-10 4.69712e-10 5.33863e-11 -1.34406e-10 2.72225e-10 3.01011e-11 7.73091 5.47488 0.417314 -1.34413e-10 2.72224e-10 3.01114e-11 2.90554 0.965183 0.102902 -1.34407e-10 2.72223e-10 3.01091e-11 10.2786 0.731801 0.0259123 -1.34419e-10 2.72225e-10 3.01143e-11 2.22167 -0.733487 -0.20892 9.37812e-15 6.52845e-15 6.86541e-14 -23.0453 9.15669 2.21672 5.65717 -2.94078 -8.39678 -0.000159294 0.280031 -0.039354 -3.01714e-10 -3.04448e-10 7.62265e-11 -5.21902e-10 -5.26046e-10 1.32936e-10 -3.01718e-10 -3.04447e-10 7.62369e-11 -7.73091 5.47488 -0.417314 -3.01713e-10 -3.04447e-10 7.62257e-11 -2.90554 0.965183 -0.102902 -3.01722e-10 -3.04446e-10 7.62298e-11 -10.2786 0.731801 -0.0259123 -3.01713e-10 -3.04445e-10 7.62298e-11 -2.22167 -0.733487 0.20892 -2.03217e-16 0.0 -3.88251e-19 -6.2313 -2.1586 -0.010509 -0.00650504 -1.76499 -0.0558219 -0.26416 3.91838 0.102607 2.03217e-16 0.0 3.88251e-19 0.336159 -6.43177 -1.94627 -0.0189625 9.29474 -0.172207 0.915699 -5.00138 4.92014
-4.05213 83.8101 35.3079 0.325 -5.3593 2.399 -2.42408 -0.811204 1.53527 1.14897 -1.84218 0.445622 -0.908237 1.1961 -1.0161 2.52269 -0.412962 -1.78134 -0.0 0.0 0.0 -0.0 0.0 0.0 1.8953e-14 1.36763e-14 1.42967e-13 47.9455 16.0743 -9.09043 -12.5438 -7.53876 19.9119 -0.00958177 5.9187 0.831489 -3.00314e-10 5.80034e-10 5.72609e-11 -5.17856e-10 1.00084e-09 1.01885e-10 -3.00305e-10 5.80033e-10 5.7251e-11 7.73091 5.47488 0.417314 -3.00315e-10 5.80032e-10 5.72619e-11 2.90554 0.965183 0.102902 -3.00308e-10 5.80031e-10 5.72633e-11 10.2786 0.731801 0.0259123 -3.0032e-10 5.80033e-10 5.72748e-11 2.22167 -0.733487 -0.20892 1.88981e-14 1.36778e-14 1.42749e-13 -48.2182 18.7893 4.75706 10.7104 -5.83894 -17.3432 9.08993e-05 0.576801 -0.0810638 -6.4901e-10 -6.43423e-10 1.50674e-10 -1.12261e-09 -1.11173e-09 2.62895e-10 -6.49013e-10 -6.4342e-10 1.50686e-10 -7.73091 5.47488 -0.417314 -6.49008e-10 -6.43419e-10 1.50673e-10 -2.90554 0.965183 -0.102902 -6.49018e-10 -6.43418e-10 1.50674e-10 -10.2786 0.731801 -0.0259123 -6.49007e-10 -6.43417e-10 1.50671e-10 -2.22167 -0.733487 0.20892 -2.03217e-16 0.0 -3.88251e-19 -12.3389 -2.40978 -0.0115469 -0.0039378 -1.43347 -0.0349723 -0.0281801 3.83525 0.0666175 2.03217e-16 0.0 3.88251e-19 2.17499 -6.90931 -4.14545 -0.0177489 13.5624 -0.310515 2.4413 -10.9023 10.3477
-4.046 83.8079 35.3031 0.337 -5.3281 2.4197 -2.95282 -1.17969 2.25398 1.84365 -2.68526 0.677128 -1.31474 1.74578 -1.47587 3.67516 -0.604545 -2.58425 -0.0 0.0 0.0 -0.0 0.0 0.0 2.56704e-14 1.96453e-14 2.05809e-13 71.7543 23.1093 -13.8648 -16.5751 -10.2239 29.2846 -0.0719383 8.62581 1.21928 -4.24776e-10 8.1726e-10 8.4563e-11 -7.32409e-10 1.41015e-09 1.50223e-10 -4.24764e-10 8.17259e-10 8.4553e-11 7.73091 5.47488 0.417314 -4.24776e-10 8.17256e-10 8.45647e-11 2.90554 0.965183 0.102902 -4.24769e-10 8.17255e-10 8.4569e-11 10.2786 0.731801 0.0259123 -4.24781e-10 8.17257e-10 8.4586e-11 2.22167 -0.733487 -0.20892 2.55471e-14 1.96459e-14 2.05565e-13 -71.4819 27.295 7.39232 14.457 -8.06596 -25.4261 0.000676269 0.84009 -0.118073 -9.26713e-10 -9.12753e-10 2.22929e-10 -1.60296e-09 -1.57711e-09 3.88848e-10 -9.26715e-10 -9.1275e-10 2.22941e-10 -7.73091 5.47488 -0.417314 -9.2671e-10 -9.12747e-10 2.22927e-10 -2.90554 0.965183 -0.102902 -9.2672e-10 -9.12746e-10 2.22926e-10 -10.2786 0.731801 -0.0259123 -9.26708e-10 -9.12745e-10 2.2292e-10 -2.22167 -0.733487 0.20892 -2.03217e-16 0.0 -3.88251e-19 -17.7863 -2.63383 -0.012474 -0.00185177 -1.13782 -0.0163834 0.182163 3.76116 0.0345312 2.03217e-16 0.0 3.88251e-19 3.78264 -7.32266 -6.10999 0.00169725 17.3679 -0.439426 4.77895 -15.9156 15.455
-4.04788 83.8063 35.2925 0.3219 -5.304 2.4337 -3.32144 -1.43258 2.75207 2.33273 -3.27275 0.837525 -1.609 2.13518 -1.77363 4.49273 -0.747458 -3.09443 -0.0 0.0 0.0 -0.0 0.0 0.0 2.51763e-14 2.26611e-14 2.4043e-13 89.1381 27.7886 -17.5991 -18.8343 -11.6127 35.9198 -0.13703 10.4952 1.49189 -4.45637e-10 8.78027e-10 1.12245e-10 -7.68065e-10 1.51488e-09 1.98157e-10 -4.45624e-10 8.78025e-10 1.12235e-10 7.73091 5.47488 0.417314 -4.45637e-10 8.78021e-10 1.12248e-10 2.90554 0.965183 0.102902 -4.45631e-10 8.78021e-10 1.12254e-10 10.2786 0.731801 0.0259123 -4.45643e-10 8.78023e-10 1.12274e-10 2.22167 -0.733487 -0.20892 2.50184e-14 2.26611e-14 2.40182e-13 -88.2452 33.1486 9.56522 16.6816 -9.33626 -31.1252 0.00127535 1.01968 -0.143322 -1.03043e-09 -1.00797e-09 2.89701e-10 -1.78241e-09 -1.74169e-09 5.04787e-10 -1.03043e-09 -1.00797e-09 2.89714e-10 -7.73091 5.47488 -0.417314 -1.03043e-09 -1.00797e-09 2.89698e-10 -2.90554 0.965183 -0.102902 -1.03044e-09 -1.00796e-09 2.89696e-10 -10.2786 0.731801 -0.0259123 -1.03043e-09 -1.00796e-09 2.89688e-10 -2.22167 -0.733487 0.20892 -2.03217e-16 0.0 -3.88251e-19 -21.5828 -2.79005 -0.0131232 -0.000511492 -0.931848 -0.00343139 0.328615 3.70968 0.0121882 2.03217e-16 0.0 3.88251e-19 4.88326 -7.59882 -7.4792 0.0263454 20.0183 -0.533202 6.9715 -19.2002 19.2262
-4.04874 83.8058 35.2843 0.3188 -5.3037 2.4362 -3.47941 -1.5234 2.93948 2.52788 -3.50324 0.89729 -1.76886 2.30103 -1.8392 4.85759 -0.824188 -3.1816 -0.0 0.0 0.0 -0.0 0.0 0.0 1.19778e-14 2.20641e-14 2.33547e-13 96.1368 29.5807 -19.1665 -19.6103 -12.026 38.5285 -0.166292 11.1887 1.59431 -3.02838e-10 6.6177e-10 1.44615e-10 -5.21108e-10 1.14149e-09 2.52509e-10 -3.02824e-10 6.61768e-10 1.44606e-10 7.73091 5.47488 0.417314 -3.02835e-10 6.61762e-10 1.44621e-10 2.90554 0.965183 0.102902 -3.02834e-10 6.61763e-10 1.44625e-10 10.2786 0.731801 0.0259123 -3.02844e-10 6.61765e-10 1.44644e-10 2.22167 -0.733487 -0.20892 1.18384e-14 2.20639e-14 2.33334e-13 -94.9326 35.4265 10.5093 17.4741 -9.75875 -33.3701 0.00151615 1.07701 -0.151383 -8.4863e-10 -8.14284e-10 3.49073e-10 -1.46806e-09 -1.40717e-09 6.07017e-10 -8.48632e-10 -8.14281e-10 3.49087e-10 -7.73091 5.47488 -0.417314 -8.48627e-10 -8.14281e-10 3.49069e-10 -2.90554 0.965183 -0.102902 -8.48638e-10 -8.1428e-10 3.49068e-10 -10.2786 0.731801 -0.0259123 -8.48623e-10 -8.14278e-10 3.4906e-10 -2.22167 -0.733487 0.20892 -2.03217e-16 0.0 -3.88251e-19 -23.0683 -2.85132 -0.013384 -1.2819e-05 -0.851478 0.00163285 0.385645 3.68989 0.00348951 2.03217e-16 0.0 3.88251e-19 5.30376 -7.69287 -8.00866 0.0391995 21.0503 -0.570196 7.95597 -20.4222 20.7602
-4.03699 83.8072 35.2822 0.3647 -5.3058 2.4177 -3.48894 -1.49866 2.90497 2.51137 -3.47871 0.885069 -1.83415 2.30726 -1.73905 4.90006 -0.853666 -2.96721 -0.0 0.0 0.0 -0.0 0.0 0.0 -1.01713e-14 1.88617e-14 1.97114e-13 95.357 29.4365 -18.971 -19.5229 -11.9775 38.2268 -0.160866 11.0428 1.57283 -4.40257e-11 2.49066e-10 1.80134e-10 -7.38168e-11 4.29035e-10 3.11112e-10 -4.40114e-11 2.49064e-10 1.80128e-10 7.73091 5.47488 0.417314 -4.40181e-11 2.49056e-10 1.80145e-10 2.90554 0.965183 0.102902 -4.40243e-11 2.4906e-10 1.80145e-10 10.2786 0.731801 0.0259123 -4.40307e-11 2.4906e-10 1.80161e-10 2.22167 -0.733487 -0.20892 -1.02545e-14 1.88616e-14 1.96965e-13 -94.1446 35.1949 10.3805 17.3892 -9.71504 -33.1227 0.00142506 1.04725 -0.147199 -4.6488e-10 -4.16385e-10 4.03147e-10 -8.04445e-10 -7.19852e-10 6.99439e-10 -4.64884e-10 -4.16382e-10 4.03162e-10 -7.73091 5.47488 -0.417314 -4.64879e-10 -4.16385e-10 4.03141e-10 -2.90554 0.965183 -0.102902 -4.64891e-10 -4.16384e-10 4.03142e-10 -10.2786 0.731801 -0.0259123 -4.64873e-10 -4.16383e-10 4.03136e-10 -2.22167 -0.733487 0.20892 -2.03217e-16 0.0 -3.88251e-19 -22.9029 -2.84476 -0.0133671 -6.83105e-05 -0.860821 0.00106384 0.378827 3.69275 0.00453489 2.03217e-16 0.0 3.88251e-19 5.24542 -7.65998 -7.93745 0.0389238 20.9265 -0.564512 7.83835 -20.2784 20.593
